<svg id="c3650fd2-eaa6-42bd-9c89-5f08f56cb8a4" data-name="Layer 1" xmlns="http://www.w3.org/2000/svg" width="40" height="48.32" viewBox="0 0 40 48.32"><title>mark</title><polygon points="10.34 20.47 13.54 19.51 13.54 12.04 10.34 13 10.34 20.47"/><path d="M23.4,12.11V0L7,4.93,4,5.81a6,6,0,0,0-4,5.44v30.1l16.6-5v12l4-1.22h0L36,42.51a6,6,0,0,0,4-5.44V7.13ZM17.6,18h0a5.17,5.17,0,0,1-4,5.16l-.08,0-1,.29-2.23.67v8.72L6.5,34V10.23L13,8.29l.55-.16.08,0c2.72-.81,4,.44,4,2.72h0Zm16.25,4-4.06,1.21v-4l-3.2,1V36.13l3.2-1v-4l4.06-1.21V34a5.17,5.17,0,0,1-4,5.17l-3.27,1h0c-2.65.73-3.84-.55-3.84-2.83h0V21.39h0a5.14,5.14,0,0,1,3.84-5h0l2-.61,1.15-.34.08,0c2.72-.81,4,.44,4,2.71h0Z"/></svg>